# xmcd CD database file
#
# Track frame offsets:
#	150
#	24545
#	47606
#	72203
#	94032
#	115795
#	140793
#	168153
#	189644
#	218053
#	239176
#	261420
#
# Disc length: 3943 seconds
#
# Revision: 0
# Processed by: cddbd v1.5.2PL0 Copyright (c) Steve Scherf et al.
# Submitted via: CDex 1.70beta3
#
DISCID=b10f650c
DTITLE=TOKU - TOKU sings and plays STEVIE WONDER
DYEAR=2011
DGENRE=Jazz
TTITLE0=Part Time Lover
TTITLE1=I Can't Help It
TTITLE2=You Are the Sunshine of My Life
TTITLE3=You've Got It Bad Girl
TTITLE4=My Cherie Amour
TTITLE5=Knocks Me Off My Feet
TTITLE6=Contusion
TTITLE7=Ribbon in the Sky
TTITLE8=Send One Your Love
TTITLE9=Summer Soft
TTITLE10=Whereabouts
TTITLE11=Overjoyed
EXTD=YEAR: 2011
EXTT0=
EXTT1=
EXTT2=
EXTT3=
EXTT4=
EXTT5=
EXTT6=
EXTT7=
EXTT8=
EXTT9=
EXTT10=
EXTT11=
PLAYORDER=
